HIERARCHY
ROOT Hips
{
  OFFSET 3.13124 94.3669 -3.18751
  CHANNELS  6 Xposition Yposition Zposition Zrotation Xrotation Yrotation
  JOINT LeftUpLeg
  {
    OFFSET 8.64259 1.95398 -2.38835
    CHANNELS 3 Zrotation Xrotation Yrotation
    JOINT LeftLeg
    {
      OFFSET 43.7702 0 0
      CHANNELS 3 Zrotation Xrotation Yrotation
      JOINT LeftFoot
      {
        OFFSET 40.6238 0 0
        CHANNELS 3 Zrotation Xrotation Yrotation
        JOINT LeftToeBase
        {
          OFFSET 12.7242 0 0
          CHANNELS 3 Zrotation Xrotation Yrotation
          End Site
          {
            OFFSET 0 0 0
          }
        }
      }
    }
  }
  JOINT RightUpLeg
  {
    OFFSET -8.2249 1.95398 -2.59336
    CHANNELS 3 Zrotation Xrotation Yrotation
    JOINT RightLeg
    {
      OFFSET 43.5653 0 0
      CHANNELS 3 Zrotation Xrotation Yrotation
      JOINT RightFoot
      {
        OFFSET 40.6238 0 0
        CHANNELS 3 Zrotation Xrotation Yrotation
        JOINT RightToeBase
        {
          OFFSET 12.7242 0 0
          CHANNELS 3 Zrotation Xrotation Yrotation
          End Site
          {
            OFFSET 0 0 0
          }
        }
      }
    }
  }
  JOINT Spine
  {
    OFFSET 0.165834 0.87714 6.61349
    CHANNELS 3 Zrotation Xrotation Yrotation
    JOINT Spine1
    {
      OFFSET 7.38962 1.71661e-005 0
      CHANNELS 3 Zrotation Xrotation Yrotation
      JOINT Spine2
      {
        OFFSET 11.9445 1.14441e-005 0
        CHANNELS 3 Zrotation Xrotation Yrotation
        JOINT Spine3
        {
          OFFSET 14.7254 4.19617e-005 0
          CHANNELS 3 Zrotation Xrotation Yrotation
          JOINT Spine4
          {
            OFFSET 10.9679 0 0
            CHANNELS 3 Zrotation Xrotation Yrotation
            JOINT RightShoulder
            {
              OFFSET 2.46616 -1.6653 3.69651
              CHANNELS 3 Zrotation Xrotation Yrotation
              JOINT RightArm
              {
                OFFSET 13.0012 0 0
                CHANNELS 3 Zrotation Xrotation Yrotation
                JOINT RightForeArm
                {
                  OFFSET 28.7848 1.52588e-005 0
                  CHANNELS 3 Zrotation Xrotation Yrotation
                  JOINT RightHand
                  {
                    OFFSET 26.5688 1.52588e-005 0
                    CHANNELS 3 Zrotation Xrotation Yrotation
                    End Site
                    {
                      OFFSET 0 0 0
                    }
                  }
                }
              }
            }
            JOINT LeftShoulder
            {
              OFFSET 2.38034 -1.29275 -3.75231
              CHANNELS 3 Zrotation Xrotation Yrotation
              JOINT LeftArm
              {
                OFFSET 16.3182 6.10352e-005 0
                CHANNELS 3 Zrotation Xrotation Yrotation
                JOINT LeftForeArm
                {
                  OFFSET 27.0901 0 0
                  CHANNELS 3 Zrotation Xrotation Yrotation
                  JOINT LeftHand
                  {
                    OFFSET 24.5451 1.52588e-005 0
                    CHANNELS 3 Zrotation Xrotation Yrotation
                    End Site
                    {
                      OFFSET 0 0 0
                    }
                  }
                }
              }
            }
            JOINT Neck
            {
              OFFSET 5.0226 -0.0266342 0
              CHANNELS 3 Zrotation Xrotation Yrotation
              JOINT Head
              {
                OFFSET 6.69363 2.86102e-005 0
                CHANNELS 3 Zrotation Xrotation Yrotation
                End Site
                {
                  OFFSET 0 0 0
                }
              }
            }
          }
        }
      }
    }
  }
}
MOTION
Frames:	13
Frame Time:	0.0333333
58.957 90.2507 88.9453 98.7763 52.4392 89.8896 -169.999 15.9128 112.455 -13.8604 -25.0291 4.53679 43.1811 -0.668906 -1.32168 28.7808 5.65769e-006 2.47258e-006 -176.855 8.75406 103.787 -31.9114 36.8553 2.88897 73.0314 -3.30404 -1.78411 28.7808 1.2097e-005 1.44224e-005 0.553626 6.68325 -91.7236 13.4942 0.432842 -2.06503 1.82166 0.341533 -2.08208 -20.7031 1.03335 -1.83958 -0.690452 1.03333 -1.83962 78.5508 -62.609 -113.277 17.6098 20.1807 8.55974 3.19045 8.4823 -39.7768 15.4632 1.9405 8.76135 -102.816 -64.5009 65.1956 -18.81 -16.2419 3.08698 -10.458 -23.5191 -31.7018 21.0679 -2.00022 -13.5557 -23.7166 -1.98627 0.284844 -9.63812 -1.7572 -3.91829 
59.1154 90.2276 88.9395 98.6512 52.5625 89.9872 -170.034 15.9892 112.495 -13.8158 -24.9614 4.57332 43.1096 -0.632741 -1.29528 28.7808 5.65769e-006 2.47258e-006 -176.801 8.73814 103.888 -31.8017 37.0775 2.92301 73.2589 -3.17619 -1.72403 28.7808 1.2097e-005 1.44224e-005 0.534341 6.66715 -91.7289 13.5263 0.394318 -2.03537 1.85377 0.304369 -2.05073 -20.6711 0.987668 -1.82293 -0.658472 0.98764 -1.82295 78.4849 -62.6494 -113.349 17.5956 20.1743 8.58366 3.45651 8.87438 -39.6795 15.1303 1.87076 8.56705 -102.8 -64.4875 65.2113 -18.6216 -16.3939 4.14612 -11.4714 -22.7702 -34.5414 20.4749 -1.53034 -11.4865 -23.4651 -1.75497 0.594383 -10.2938 -1.49199 -3.72023 
59.2578 90.212 88.9216 98.3594 52.6318 90.226 -170.076 16.0916 112.527 -13.6964 -25.0041 4.5967 43.0364 -0.623828 -1.29145 28.7808 5.65769e-006 2.47258e-006 -176.784 8.85746 103.962 -31.7694 37.1426 2.93737 73.2295 -3.31028 -1.78849 28.7808 1.2097e-005 1.44224e-005 0.533708 6.63629 -91.7435 13.5876 0.386872 -2.0304 1.91514 0.297116 -2.04545 -20.6097 0.979304 -1.8206 -0.597112 0.979292 -1.82061 78.5673 -62.6074 -113.256 17.5479 20.1942 8.68099 3.64672 9.13491 -39.674 15.0014 1.86446 8.63678 -103.143 -64.5629 64.8066 -18.7641 -16.2938 3.32086 -10.9785 -22.9888 -33.3137 20.6976 -1.74281 -12.4531 -23.4374 -1.62155 0.91295 -10.6825 -1.33377 -3.56762 
59.3998 90.2068 88.9016 98.035 52.6368 90.4901 -170.095 16.1501 112.569 -13.5208 -25.09 4.61092 42.9285 -0.671624 -1.3374 28.7808 5.65769e-006 2.47258e-006 -176.751 8.93583 104.03 -31.6284 37.2002 2.94807 73.2777 -3.43299 -1.84659 28.7808 1.2097e-005 1.44224e-005 0.538753 6.6033 -91.7478 13.6534 0.395394 -2.01279 1.98092 0.306412 -2.02823 -20.5442 0.981926 -1.80101 -0.531579 0.981899 -1.80103 78.5555 -62.6455 -113.259 17.4925 20.2129 8.74837 3.69243 9.2304 -39.5777 14.9309 1.85476 8.63101 -103.336 -64.6022 64.5782 -18.7053 -16.3412 3.57738 -11.1768 -22.6365 -34.102 20.3891 -1.59055 -11.8124 -23.4596 -1.52776 1.05873 -11.0498 -1.2236 -3.48013 
59.5448 90.2079 88.8699 97.6751 52.5953 90.7811 -170.09 16.1692 112.616 -13.2804 -25.2449 4.6095 42.8285 -0.731376 -1.39272 28.7808 5.65769e-006 2.47258e-006 -176.715 8.99822 104.084 -31.4411 37.1292 2.94193 73.3322 -3.47064 -1.8644 28.7808 1.2097e-005 1.44224e-005 0.548101 6.56651 -91.7487 13.7267 0.413973 -1.99266 2.0543 0.325893 -2.00893 -20.4712 0.993604 -1.77623 -0.458516 0.993601 -1.77625 78.5494 -62.6905 -113.251 17.4622 20.2221 8.83827 3.65272 9.18909 -39.5399 14.9316 1.85496 8.63185 -103.484 -64.6334 64.403 -18.6697 -16.3675 3.67007 -11.2647 -22.5085 -34.4238 20.2491 -1.51689 -11.4924 -23.5001 -1.46991 1.20982 -11.483 -1.13826 -3.51159 
59.6923 90.2192 88.8321 97.2919 52.5238 91.0679 -170.083 16.1519 112.641 -12.9948 -25.4384 4.60981 42.6568 -0.798289 -1.45953 28.7808 5.65769e-006 2.47258e-006 -176.673 9.05661 104.113 -31.2257 37.1332 2.94199 73.3972 -3.46793 -1.86336 28.7808 1.2097e-005 1.44224e-005 0.559561 6.52228 -91.7491 13.8149 0.436085 -1.98012 2.14254 0.348514 -1.99738 -20.3832 1.01094 -1.75761 -0.370529 1.01093 -1.75764 78.6776 -62.6594 -113.096 17.5413 20.1702 8.92106 3.69735 9.26566 -39.4951 14.774 1.8144 8.47651 -103.67 -64.7144 64.1973 -18.5606 -16.4369 3.95327 -11.5242 -22.5112 -34.9395 20.0598 -1.42593 -11.097 -23.6669 -1.45825 1.42433 -11.8788 -1.09733 -3.55 
59.8552 90.2169 88.7965 96.6913 52.4139 91.5708 -170.08 16.2435 112.705 -12.7186 -25.4878 4.63933 42.6628 -1.13011 -1.73805 28.7808 5.65769e-006 2.47258e-006 -176.678 9.29615 104.177 -31.1207 36.9649 2.92308 73.2987 -3.65255 -1.951 28.7808 1.2097e-005 1.44224e-005 0.574264 6.45915 -91.7489 13.9409 0.462658 -1.96362 2.26852 0.375798 -1.98207 -20.2575 1.03133 -1.7339 -0.244882 1.03132 -1.73393 78.7122 -62.7164 -113.032 17.5179 20.2083 9.11952 4.07709 9.64374 -39.8903 14.9047 1.89157 8.9198 -103.563 -64.6927 64.3235 -18.54 -16.4499 4.2062 -11.4117 -22.254 -35.0119 20.0059 -1.3647 -10.8048 -23.8325 -1.41718 1.22359 -12.3525 -1.09338 -3.08242 
60.0099 90.2306 88.7151 96.3862 52.3361 91.7367 -170.052 16.0721 112.65 -12.232 -25.9908 4.59474 42.5175 -0.891436 -1.54428 28.7808 5.65769e-006 2.47258e-006 -176.656 9.27303 104.126 -30.9579 36.9009 2.91728 73.4308 -3.43892 -1.85135 28.7808 1.2097e-005 1.44224e-005 0.58888 6.4131 -91.7563 14.0326 0.491764 -1.94237 2.3602 0.405798 -1.96213 -20.1662 1.05271 -1.70488 -0.153584 1.0527 -1.70491 78.9678 -62.7595 -112.685 17.5927 20.1575 9.14576 4.16264 9.77486 -39.8484 14.7889 1.82625 8.55839 -103.536 -64.7522 64.3773 -18.4472 -16.506 4.52568 -11.4538 -22.1262 -35.2463 19.9797 -1.25257 -10.2467 -23.948 -1.47738 2.53493 -13.0421 -0.894399 -4.66079 
60.2348 90.2358 88.6618 95.6755 52.1443 92.2828 -169.927 16.0264 112.686 -11.633 -26.0764 4.54571 42.3603 -0.744637 -1.426 28.7808 5.65769e-006 2.47258e-006 -176.696 9.59805 104.166 -30.9885 36.9074 2.91955 73.2464 -3.77035 -2.00865 28.7808 1.2097e-005 1.44224e-005 0.618736 6.31748 -91.7506 14.2235 0.546803 -1.9255 2.55119 0.461547 -1.94766 -19.9757 1.10018 -1.67225 0.0369024 1.10018 -1.67225 79.0879 -62.9584 -112.464 17.6058 20.137 9.12633 4.14499 9.80986 -39.6869 14.4426 1.7939 8.6238 -103.368 -64.7025 64.5702 -18.3644 -16.5455 4.89309 -11.3071 -22.063 -35.0239 19.9617 -1.22221 -10.0976 -24.5955 -1.31157 1.75928 -13.5917 -0.903728 -3.12901 
60.4739 90.2791 88.5484 95.488 52.0035 92.2702 -169.647 15.5739 112.672 -10.9737 -26.1821 4.34235 42.2003 -0.866352 -1.53632 28.7808 5.65769e-006 2.47258e-006 -176.692 9.39764 104.033 -30.7471 35.9632 2.80739 73.4541 -3.54247 -1.89683 28.7808 1.2097e-005 1.44224e-005 0.631332 6.23772 -91.7298 14.3827 0.593377 -1.86524 2.71049 0.510719 -1.88955 -19.8174 1.12574 -1.60079 0.195285 1.12574 -1.6008 79.1546 -63.2461 -112.283 17.4869 20.1803 9.27385 4.26947 10.0338 -39.5437 14.494 1.79404 8.58264 -102.994 -64.6249 65.0126 -18.2126 -16.6214 5.30283 -11.1877 -22.0595 -34.7856 20.0767 -1.14415 -9.67664 -25.6447 -1.16467 1.67088 -14.1179 -0.755709 -2.86331 
60.8346 90.3 88.4287 95.2913 51.9953 92.225 -169.35 15.1416 112.676 -10.282 -26.1013 4.13148 41.9569 -1.08514 -1.73382 28.7808 5.65769e-006 2.47258e-006 -176.712 9.27893 103.956 -30.7809 35.6957 2.77793 73.5769 -3.32276 -1.79206 28.7808 1.2097e-005 1.44224e-005 0.629766 6.13909 -91.6999 14.5809 0.610853 -1.80015 2.90881 0.531015 -1.82528 -19.6198 1.12351 -1.53343 0.392899 1.12348 -1.53345 79.2496 -63.6168 -112.04 17.2172 20.3035 9.40001 4.31966 10.1824 -39.3345 14.6386 1.85121 8.86827 -102.41 -64.699 65.7666 -17.9702 -16.7317 5.48272 -10.9318 -22.2432 -34.0507 20.1518 -1.15307 -9.7023 -27.224 -1.05948 1.58987 -14.5906 -0.652653 -2.588 
61.0984 90.3136 88.3133 94.3975 52.019 92.7024 -169.316 15.0834 112.52 -9.6093 -26.2035 4.00604 41.6649 -1.19812 -1.84571 28.7808 5.65769e-006 2.47258e-006 -176.827 9.66569 103.743 -30.8726 35.3528 2.75029 73.5817 -3.09692 -1.68937 28.7808 1.2097e-005 1.44224e-005 0.644752 5.99103 -91.7159 14.875 0.63602 -1.73027 3.20302 0.559238 -1.75657 -19.3263 1.12695 -1.45921 0.686293 1.12695 -1.45923 79.5568 -63.9831 -111.527 16.9801 20.395 9.39118 4.33212 10.3443 -38.9597 14.508 1.81599 8.72765 -101.566 -64.9898 66.9141 -17.589 -16.9098 5.45429 -10.6189 -22.3862 -33.2458 20.0251 -1.16744 -9.8055 -28.5964 -1.01171 1.83981 -15.6479 -0.505382 -2.83137 
61.362 90.2781 88.2371 93.9765 52.3417 92.7618 -169.396 15.1065 112.315 -9.31863 -26.2471 3.89307 41.446 -1.09044 -1.76569 28.7808 5.65769e-006 2.47258e-006 -176.898 9.74343 103.504 -30.8293 34.4687 2.65969 73.9288 -2.38667 -1.36015 28.7808 1.2097e-005 1.44224e-005 0.647983 5.89418 -91.7315 15.0682 0.64264 -1.64686 3.39632 0.569695 -1.67353 -19.1338 1.10809 -1.37759 0.878833 1.10806 -1.37761 80.0234 -64.301 -110.829 16.7568 20.5014 9.32831 4.55959 10.7198 -38.823 14.3682 1.77087 8.51794 -100.751 -65.2802 68.0197 -17.1718 -17.1112 5.20682 -10.4054 -22.5685 -32.6023 19.8048 -1.22609 -10.1594 -29.2184 -0.937684 1.84496 -17.1159 -0.398039 -2.73897 
